<svg xmlns="http://www.w3.org/2000/svg" xmlns:xlink="http://www.w3.org/1999/xlink" id="Heart" x="0" y="0" version="1.1" viewBox="0 0 512 512" xml:space="preserve" style="enable-background:new 0 0 512 512"><style type="text/css">.st1{fill:url(#Background2_1_)}.st5{opacity:.25;fill:#fff;enable-background:new}.st6{opacity:.41}.st7{clip-path:url(#SVGID_2_);fill:#fff}</style><linearGradient id="Background2_1_" x1="0%" x2="100%" y1="0%" y2="0%" spreadMethod="pad"><stop offset="0%" style="stop-color:#000;stop-opacity:1"/><stop offset="12.5%" style="stop-color:#000;stop-opacity:1"/><stop offset="12.5%" style="stop-color:#784f16;stop-opacity:1"/><stop offset="25%" style="stop-color:#784f16;stop-opacity:1"/><stop offset="25%" style="stop-color:#e40303;stop-opacity:1"/><stop offset="37.5%" style="stop-color:#e50404;stop-opacity:1"/><stop offset="37.5%" style="stop-color:#fe8c01;stop-opacity:1"/><stop offset="50%" style="stop-color:#fe8c01;stop-opacity:1"/><stop offset="50%" style="stop-color:#ffed00;stop-opacity:1"/><stop offset="62.5%" style="stop-color:#ffed00;stop-opacity:1"/><stop offset="62.5%" style="stop-color:#018025;stop-opacity:1"/><stop offset="75%" style="stop-color:#028126;stop-opacity:1"/><stop offset="75%" style="stop-color:#034eff;stop-opacity:1"/><stop offset="87.5%" style="stop-color:#034eff;stop-opacity:1"/><stop offset="87.5%" style="stop-color:#750787;stop-opacity:1"/><stop offset="100" style="stop-color:#760888;stop-opacity:1"/></linearGradient><path id="Background2" d="M255.6,107c0,0,33.3-103.8,141.8-103.8c88.7,0.8,174.3,152.2,45.9,319.5	C312.6,474.8,255.6,508.9,255.6,508.9s-55.5-26.2-183.8-185.5C-58.1,170.4,17.9,1.5,124.1,3.1C230.2,3.9,255.6,107,255.6,107z" class="st1"/><path id="Shade" d="M254,212.4c0,0,0.8-189.5,143.4-189.5c86.4,0,137.8,162.5,30.1,287.8C296,464.5,254,486.7,254,486.7	s-50.7-28.5-167.2-175.2C-22.5,174.4,24.3,22.1,125.7,23.7C255.6,25.3,254,212.4,254,212.4z" class="st5"/><g id="Shine" class="st6"><g><g><defs><path id="SVGID_1_" d="M254,212.4c0,0,0.8-189.5,143.4-189.5c86.4,0,137.8,162.5,30.1,287.8C296,464.5,254,486.7,254,486.7 s-50.7-28.5-167.2-175.2C-22.5,174.4,24.3,22.1,125.7,23.7C255.6,25.3,254,212.4,254,212.4z"/></defs><clipPath id="SVGID_2_"><use xlink:href="#SVGID_1_" style="overflow:visible"/></clipPath><path d="M520.2-27.8c0,288.6-119.6,304.4-267.8,304.4S-15.3,260.8-15.3-27.8c0-168.1,119.6-304.4,267.8-304.4 S520.2-195.9,520.2-27.8z" class="st7"/></g></g></g></svg>