<svg xmlns="http://www.w3.org/2000/svg" xmlns:xlink="http://www.w3.org/1999/xlink" id="Heart" x="0" y="0" version="1.1" viewBox="0 0 512 512" xml:space="preserve" style="enable-background:new 0 0 512 512"><style type="text/css">.st0{fill:#ca83a7}.st1{fill:url(#Background2_1_)}.st2{fill:url(#Background3_1_)}.st3{fill:url(#Background4_1_)}.st4{fill:url(#Background5_1_)}.st5{opacity:.25;fill:#fff;enable-background:new}.st6{opacity:.41}.st7{clip-path:url(#SVGID_2_);fill:#fff}</style><path id="Background" d="M255.6,107c0,0,33.3-103.8,141.8-103.8c88.7,0.8,174.3,152.2,45.9,319.5	C312.6,474.8,255.6,508.9,255.6,508.9s-55.5-26.2-183.8-185.5C-58.1,170.4,17.9,1.5,124.1,3.1C230.2,3.9,255.6,107,255.6,107z" class="st0"/><linearGradient id="Background2_1_" x1="-502.296" x2="-494.37" y1="1016.584" y2="1008.659" gradientTransform="matrix(63.7933 0 0 -63.8014 32087.4121 64821.5391)" gradientUnits="userSpaceOnUse"><stop offset="0" style="stop-color:#ce3691"/><stop offset=".5" style="stop-color:#ce3691;stop-opacity:0"/></linearGradient><path id="Background2" d="M255.6,107c0,0,33.3-103.8,141.8-103.8c88.7,0.8,174.3,152.2,45.9,319.5	C312.6,474.8,255.6,508.9,255.6,508.9s-55.5-26.2-183.8-185.5C-58.1,170.4,17.9,1.5,124.1,3.1C230.2,3.9,255.6,107,255.6,107z" class="st1"/><linearGradient id="Background3_1_" x1="-496.852" x2="-502.4" y1="1015.398" y2="1009.85" gradientTransform="matrix(63.7933 0 0 -63.8014 32087.4121 64821.5391)" gradientUnits="userSpaceOnUse"><stop offset="0" style="stop-color:#75caec"/><stop offset=".5" style="stop-color:#75caec;stop-opacity:0"/></linearGradient><path id="Background3" d="M255.6,107c0,0,33.3-103.8,141.8-103.8c88.7,0.8,174.3,152.2,45.9,319.5	C312.6,474.8,255.6,508.9,255.6,508.9s-55.5-26.2-183.8-185.5C-58.1,170.4,17.9,1.5,124.1,3.1C230.2,3.9,255.6,107,255.6,107z" class="st2"/><linearGradient id="Background4_1_" x1="-502.4" x2="-496.852" y1="1009.85" y2="1015.398" gradientTransform="matrix(63.7933 0 0 -63.8014 32087.4121 64821.5391)" gradientUnits="userSpaceOnUse"><stop offset="0" style="stop-color:#fe7f7c"/><stop offset=".5" style="stop-color:#fe7f7c;stop-opacity:0"/></linearGradient><path id="Background4" d="M255.6,107c0,0,33.3-103.8,141.8-103.8c88.7,0.8,174.3,152.2,45.9,319.5	C312.6,474.8,255.6,508.9,255.6,508.9s-55.5-26.2-183.8-185.5C-58.1,170.4,17.9,1.5,124.1,3.1C230.2,3.9,255.6,107,255.6,107z" class="st3"/><linearGradient id="Background5_1_" x1="-494.37" x2="-502.296" y1="1008.659" y2="1016.584" gradientTransform="matrix(63.7933 0 0 -63.8014 32087.4121 64821.5391)" gradientUnits="userSpaceOnUse"><stop offset="0" style="stop-color:#f3be98"/><stop offset=".5" style="stop-color:#f3be98;stop-opacity:0"/></linearGradient><path id="Background5" d="M255.6,107c0,0,33.3-103.8,141.8-103.8c88.7,0.8,174.3,152.2,45.9,319.5	C312.6,474.8,255.6,508.9,255.6,508.9s-55.5-26.2-183.8-185.5C-58.1,170.4,17.9,1.5,124.1,3.1C230.2,3.9,255.6,107,255.6,107z" class="st4"/><path id="Shade" d="M254,212.4c0,0,0.8-189.5,143.4-189.5c86.4,0,137.8,162.5,30.1,287.8C296,464.5,254,486.7,254,486.7	s-50.7-28.5-167.2-175.2C-22.5,174.4,24.3,22.1,125.7,23.7C255.6,25.3,254,212.4,254,212.4z" class="st5"/><g id="Shine" class="st6"><g><g><defs><path id="SVGID_1_" d="M254,212.4c0,0,0.8-189.5,143.4-189.5c86.4,0,137.8,162.5,30.1,287.8C296,464.5,254,486.7,254,486.7 s-50.7-28.5-167.2-175.2C-22.5,174.4,24.3,22.1,125.7,23.7C255.6,25.3,254,212.4,254,212.4z"/></defs><clipPath id="SVGID_2_"><use xlink:href="#SVGID_1_" style="overflow:visible"/></clipPath><path d="M520.2-27.8c0,288.6-119.6,304.4-267.8,304.4S-15.3,260.8-15.3-27.8c0-168.1,119.6-304.4,267.8-304.4 S520.2-195.9,520.2-27.8z" class="st7"/></g></g></g></svg>